<?xml version="1.0" standalone="no"?>
<!DOCTYPE svg PUBLIC "-//W3C//DTD SVG 20010904//EN"
 "http://www.w3.org/TR/2001/REC-SVG-20010904/DTD/svg10.dtd">
<svg version="1.0" xmlns="http://www.w3.org/2000/svg"
 width="240.000000pt" height="240.000000pt" viewBox="0 0 240.000000 240.000000"
 preserveAspectRatio="xMidYMid meet">

<g transform="translate(0.000000,240.000000) scale(0.100000,-0.100000)"
fill="#000000" stroke="none">
<path d="M400 1200 l0 -800 800 0 800 0 0 800 0 800 -800 0 -800 0 0 -800z
m1400 0 l0 -600 -600 0 -600 0 0 600 0 600 600 0 600 0 0 -600z"/>
<path d="M938 1571 c-27 -24 -33 -36 -33 -71 0 -35 6 -47 33 -71 l32 -29 226
0 c175 0 231 3 253 14 66 35 66 137 0 172 -22 11 -78 14 -253 14 l-226 0 -32
-29z"/>
</g>
</svg>
